<mxfile host="app.diagrams.net" modified="2020-03-26T15:22:00.147Z" agent="Mozilla/5.0 (Windows NT 10.0; Win64; x64) AppleWebKit/537.36 (KHTML, like Gecko) Chrome/80.0.3987.149 Safari/537.36" etag="2nMeIRuEwZT0Q5eGql7o" version="12.9.3" type="github">
  <diagram name="Page-1" id="9361dd3d-8414-5efd-6122-117bd74ce7a7">
    <mxGraphModel dx="1422" dy="833" grid="1" gridSize="10" guides="1" tooltips="1" connect="1" arrows="1" fold="1" page="0" pageScale="1.5" pageWidth="826" pageHeight="1169" background="#ffffff" math="0" shadow="0">
      <root>
        <mxCell id="0" />
        <mxCell id="1" parent="0" />
        <mxCell id="KNcOEiXxL7E3P6PZ_gTP-124" value="" style="edgeStyle=none;endArrow=none;dashed=1" edge="1" parent="1">
          <mxGeometry x="233.57118055555588" y="162.61714506172842" width="100" height="100" as="geometry">
            <mxPoint x="204.5" y="112.92000000000007" as="sourcePoint" />
            <mxPoint x="204.5" y="457.0899999999999" as="targetPoint" />
          </mxGeometry>
        </mxCell>
        <mxCell id="KNcOEiXxL7E3P6PZ_gTP-123" value="" style="edgeStyle=none;endArrow=none;dashed=1" edge="1" parent="1">
          <mxGeometry x="376.0711805555559" y="162.61714506172842" width="100" height="100" as="geometry">
            <mxPoint x="347" y="112.92000000000004" as="sourcePoint" />
            <mxPoint x="347" y="457.09" as="targetPoint" />
          </mxGeometry>
        </mxCell>
        <mxCell id="KNcOEiXxL7E3P6PZ_gTP-122" value="" style="edgeStyle=none;endArrow=none;dashed=1" edge="1" parent="1">
          <mxGeometry x="541.0711805555559" y="162.61714506172842" width="100" height="100" as="geometry">
            <mxPoint x="512" y="112.92000000000004" as="sourcePoint" />
            <mxPoint x="512" y="457.09" as="targetPoint" />
          </mxGeometry>
        </mxCell>
        <mxCell id="KNcOEiXxL7E3P6PZ_gTP-101" style="edgeStyle=orthogonalEdgeStyle;rounded=0;orthogonalLoop=1;jettySize=auto;html=1;exitX=1;exitY=0.75;exitDx=0;exitDy=0;" edge="1" parent="1" source="2">
          <mxGeometry relative="1" as="geometry">
            <mxPoint x="342" y="194" as="targetPoint" />
            <Array as="points">
              <mxPoint x="210" y="194" />
            </Array>
          </mxGeometry>
        </mxCell>
        <mxCell id="KNcOEiXxL7E3P6PZ_gTP-102" value="switchInitData()" style="text;html=1;align=center;verticalAlign=middle;resizable=0;points=[];labelBackgroundColor=#ffffff;" vertex="1" connectable="0" parent="KNcOEiXxL7E3P6PZ_gTP-101">
          <mxGeometry x="0.2967" y="-2" relative="1" as="geometry">
            <mxPoint x="-25.44" y="0.9700000000000006" as="offset" />
          </mxGeometry>
        </mxCell>
        <mxCell id="2" value="" style="fillColor=#CC4125;strokeColor=#660000" parent="1" vertex="1">
          <mxGeometry x="200" y="170" width="10" height="30" as="geometry" />
        </mxCell>
        <mxCell id="4" value="StreamProcessor" style="shadow=1;fillColor=#A2C4C9;strokeColor=none" parent="1" vertex="1">
          <mxGeometry x="152.5" y="60" width="105" height="50" as="geometry" />
        </mxCell>
        <mxCell id="KNcOEiXxL7E3P6PZ_gTP-109" style="edgeStyle=orthogonalEdgeStyle;rounded=0;orthogonalLoop=1;jettySize=auto;html=1;exitX=1;exitY=0.75;exitDx=0;exitDy=0;dashed=1;" edge="1" parent="1" source="6">
          <mxGeometry relative="1" as="geometry">
            <mxPoint x="510" y="265" as="targetPoint" />
          </mxGeometry>
        </mxCell>
        <mxCell id="KNcOEiXxL7E3P6PZ_gTP-110" value="INIT_REQUESTED" style="text;html=1;align=center;verticalAlign=middle;resizable=0;points=[];labelBackgroundColor=#ffffff;" vertex="1" connectable="0" parent="KNcOEiXxL7E3P6PZ_gTP-109">
          <mxGeometry x="-0.2063" y="-3" relative="1" as="geometry">
            <mxPoint x="14.5" as="offset" />
          </mxGeometry>
        </mxCell>
        <mxCell id="6" value="" style="fillColor=#CC4125;strokeColor=#660000" parent="1" vertex="1">
          <mxGeometry x="342.5" y="190" width="10" height="100" as="geometry" />
        </mxCell>
        <mxCell id="7" value="BufferController" style="shadow=1;fillColor=#A2C4C9;strokeColor=none" parent="1" vertex="1">
          <mxGeometry x="295" y="60" width="105" height="50" as="geometry" />
        </mxCell>
        <mxCell id="21" value="" style="fillColor=#CC4125;strokeColor=#660000" parent="1" vertex="1">
          <mxGeometry x="507.5" y="130" width="10" height="40" as="geometry" />
        </mxCell>
        <mxCell id="22" value="ScheduleController" style="shadow=1;fillColor=#A2C4C9;strokeColor=none" parent="1" vertex="1">
          <mxGeometry x="460" y="60" width="105" height="50" as="geometry" />
        </mxCell>
        <mxCell id="23" value="" style="edgeStyle=none;endArrow=none;dashed=1" parent="1" source="22" target="21" edge="1">
          <mxGeometry x="614.4878472222224" y="174.99999999999997" width="100" height="100" as="geometry">
            <mxPoint x="674.6527777777778" y="110" as="sourcePoint" />
            <mxPoint x="674.6527777777778" y="260" as="targetPoint" />
          </mxGeometry>
        </mxCell>
        <mxCell id="24" value="DashHandler" style="shadow=1;fillColor=#A2C4C9;strokeColor=none" parent="1" vertex="1">
          <mxGeometry x="630" y="60" width="105" height="50" as="geometry" />
        </mxCell>
        <object label="" id="34">
          <mxCell style="edgeStyle=elbowEdgeStyle;elbow=vertical;verticalLabelPosition=top;verticalAlign=bottom" parent="1" edge="1" target="2">
            <mxGeometry x="377.5" y="140.7361111111111" width="100" height="100" as="geometry">
              <mxPoint x="507.5" y="170.1304012345679" as="sourcePoint" />
              <mxPoint x="624.9999999999999" y="170.1304012345679" as="targetPoint" />
              <Array as="points" />
            </mxGeometry>
          </mxCell>
        </object>
        <mxCell id="KNcOEiXxL7E3P6PZ_gTP-105" value="switchInitData()" style="text;html=1;align=center;verticalAlign=middle;resizable=0;points=[];labelBackgroundColor=#ffffff;" vertex="1" connectable="0" parent="34">
          <mxGeometry relative="1" as="geometry">
            <mxPoint x="-6.129999999999999" as="offset" />
          </mxGeometry>
        </mxCell>
        <mxCell id="KNcOEiXxL7E3P6PZ_gTP-89" style="edgeStyle=orthogonalEdgeStyle;rounded=0;orthogonalLoop=1;jettySize=auto;html=1;" edge="1" parent="1">
          <mxGeometry relative="1" as="geometry">
            <mxPoint x="513" y="120" as="sourcePoint" />
            <mxPoint x="518" y="140" as="targetPoint" />
            <Array as="points">
              <mxPoint x="550" y="120" />
              <mxPoint x="550" y="140" />
              <mxPoint x="518" y="140" />
            </Array>
          </mxGeometry>
        </mxCell>
        <mxCell id="KNcOEiXxL7E3P6PZ_gTP-90" value="schedule()" style="text;html=1;align=center;verticalAlign=middle;resizable=0;points=[];labelBackgroundColor=#ffffff;" vertex="1" connectable="0" parent="KNcOEiXxL7E3P6PZ_gTP-89">
          <mxGeometry x="0.3765" relative="1" as="geometry">
            <mxPoint x="26.5" y="-10" as="offset" />
          </mxGeometry>
        </mxCell>
        <mxCell id="KNcOEiXxL7E3P6PZ_gTP-112" value="Check if init data in cache, then request for init segment" style="shape=note;whiteSpace=wrap;html=1;backgroundOutline=1;darkOpacity=0.05;" vertex="1" parent="1">
          <mxGeometry x="365" y="190" width="115" height="70" as="geometry" />
        </mxCell>
        <mxCell id="KNcOEiXxL7E3P6PZ_gTP-113" value="" style="fillColor=#CC4125;strokeColor=#660000" vertex="1" parent="1">
          <mxGeometry x="200" y="304.39" width="10" height="55.61" as="geometry" />
        </mxCell>
        <object label="" id="KNcOEiXxL7E3P6PZ_gTP-115">
          <mxCell style="edgeStyle=elbowEdgeStyle;elbow=vertical;verticalLabelPosition=top;verticalAlign=bottom" edge="1" parent="1">
            <mxGeometry x="377.5" y="285.1261111111111" width="100" height="100" as="geometry">
              <mxPoint x="507.5" y="314.5204012345679" as="sourcePoint" />
              <mxPoint x="210" y="314.39" as="targetPoint" />
              <Array as="points" />
            </mxGeometry>
          </mxCell>
        </object>
        <mxCell id="KNcOEiXxL7E3P6PZ_gTP-116" value="getInitRequest()" style="text;html=1;align=center;verticalAlign=middle;resizable=0;points=[];labelBackgroundColor=#ffffff;" vertex="1" connectable="0" parent="KNcOEiXxL7E3P6PZ_gTP-115">
          <mxGeometry relative="1" as="geometry">
            <mxPoint x="-6.129999999999999" as="offset" />
          </mxGeometry>
        </mxCell>
        <mxCell id="KNcOEiXxL7E3P6PZ_gTP-117" value="" style="fillColor=#CC4125;strokeColor=#660000" vertex="1" parent="1">
          <mxGeometry x="507.5" y="250" width="10" height="70" as="geometry" />
        </mxCell>
        <mxCell id="KNcOEiXxL7E3P6PZ_gTP-121" value="" style="edgeStyle=none;endArrow=none;dashed=1" edge="1" parent="1" source="KNcOEiXxL7E3P6PZ_gTP-125">
          <mxGeometry x="709.0711805555559" y="165.52714506172842" width="100" height="100" as="geometry">
            <mxPoint x="680" y="115.83000000000001" as="sourcePoint" />
            <mxPoint x="680" y="460" as="targetPoint" />
          </mxGeometry>
        </mxCell>
        <mxCell id="KNcOEiXxL7E3P6PZ_gTP-125" value="" style="fillColor=#CC4125;strokeColor=#660000" vertex="1" parent="1">
          <mxGeometry x="675.5" y="330" width="10" height="40" as="geometry" />
        </mxCell>
        <mxCell id="KNcOEiXxL7E3P6PZ_gTP-126" value="" style="edgeStyle=none;endArrow=none;dashed=1" edge="1" parent="1" target="KNcOEiXxL7E3P6PZ_gTP-125">
          <mxGeometry x="709.0711805555559" y="165.52714506172842" width="100" height="100" as="geometry">
            <mxPoint x="680" y="115.83000000000004" as="sourcePoint" />
            <mxPoint x="680" y="460" as="targetPoint" />
          </mxGeometry>
        </mxCell>
        <mxCell id="KNcOEiXxL7E3P6PZ_gTP-127" value="" style="endArrow=classic;html=1;entryX=0;entryY=0.5;entryDx=0;entryDy=0;" edge="1" parent="1" target="KNcOEiXxL7E3P6PZ_gTP-125">
          <mxGeometry width="50" height="50" relative="1" as="geometry">
            <mxPoint x="210" y="350" as="sourcePoint" />
            <mxPoint x="660" y="350" as="targetPoint" />
          </mxGeometry>
        </mxCell>
        <mxCell id="KNcOEiXxL7E3P6PZ_gTP-128" value="getInitRequest()" style="text;html=1;align=center;verticalAlign=middle;resizable=0;points=[];labelBackgroundColor=#ffffff;" vertex="1" connectable="0" parent="KNcOEiXxL7E3P6PZ_gTP-127">
          <mxGeometry x="0.0921" y="-2" relative="1" as="geometry">
            <mxPoint as="offset" />
          </mxGeometry>
        </mxCell>
      </root>
    </mxGraphModel>
  </diagram>
</mxfile>
